<?xml version="1.0" encoding="utf-8"?>
<svg width="520px" height="520px" viewBox="0 0 520 520" version="1.1" xmlns:xlink="http://www.w3.org/1999/xlink" xmlns="http://www.w3.org/2000/svg">
  <defs>
    <path d="M520 0L520 0L520 520L0 520L0 0L520 0Z" id="path_1" />
    <clipPath id="clip_1">
      <use xlink:href="#path_1" clip-rule="evenodd" fill-rule="evenodd" />
    </clipPath>
  </defs>
  <g id="matrix-dark">
    <path d="M520 0L520 0L520 520L0 520L0 0L520 0Z" id="matrix-dark" fill="none" stroke="none" />
    <path d="M13.7 11.9L13.7 508.1L49.4 508.1L49.4 520L0 520L0 0L49.4 0L49.4 11.9L13.7 11.9L13.7 11.9Z" id="Shape" fill="#FFFFFF" stroke="none" clip-path="url(#clip_1)" />
    <path d="M166.3 169.2L166.3 194.3L167 194.3C173.7 184.7 181.8 177.3 191.2 172.1C200.6 166.8 211.5 164.2 223.7 164.2C235.4 164.2 246.1 166.5 255.8 171C265.5 175.5 272.8 183.6 277.9 195C283.4 186.9 290.9 179.7 300.3 173.5C309.7 167.3 320.9 164.2 333.8 164.2C343.6 164.2 352.7 165.4 361.1 167.8C369.5 170.2 376.6 174 382.6 179.3C388.6 184.6 393.2 191.4 396.6 199.9C399.9 208.4 401.6 218.6 401.6 230.6L401.6 354.7L350.7 354.7L350.7 249.6C350.7 243.4 350.5 237.5 350 232C349.5 226.5 348.2 221.7 346.1 217.7C343.9 213.6 340.8 210.4 336.6 208C332.4 205.6 326.7 204.4 319.6 204.4C312.4 204.4 306.6 205.8 302.2 208.5C297.8 211.3 294.3 214.8 291.8 219.3C289.3 223.7 287.6 228.7 286.8 234.4C286 240 285.5 245.7 285.5 251.4L285.5 354.7L234.6 354.7L234.6 250.7C234.6 245.2 234.5 239.8 234.2 234.4C234 229 232.9 224.1 231.1 219.5C229.3 215 226.3 211.3 222.1 208.6C217.9 205.9 211.8 204.5 203.6 204.5C201.2 204.5 198 205 194.1 206.1C190.2 207.2 186.3 209.2 182.6 212.2C178.9 215.2 175.7 219.5 173.1 225.1C170.5 230.7 169.2 238.1 169.2 247.2L169.2 354.8L118.3 354.8L118.3 169.2L166.3 169.2L166.3 169.2Z" id="Shape" fill="#FFFFFF" stroke="none" clip-path="url(#clip_1)" />
    <path d="M506.3 508.1L506.3 11.9L470.6 11.9L470.6 0L520 0L520 520L470.6 520L470.6 508.1L506.3 508.1L506.3 508.1Z" id="Shape" fill="#FFFFFF" stroke="none" clip-path="url(#clip_1)" />
  </g>
</svg>