<?xml version="1.0" encoding="utf-8"?>
<svg width="186px" height="186px" viewBox="0 0 186 186" version="1.1" xmlns:xlink="http://www.w3.org/1999/xlink" xmlns="http://www.w3.org/2000/svg">
  <defs>
    <path d="M186 0L186 0L186 186L0 186L0 0L186 0Z" id="path_1" />
    <clipPath id="clip_1">
      <use xlink:href="#path_1" clip-rule="evenodd" fill-rule="evenodd" />
    </clipPath>
  </defs>
  <g id="grav-dark">
    <path d="M186 0L186 0L186 186L0 186L0 0L186 0Z" id="grav-dark" fill="none" stroke="none" />
    <path d="M0 93.3177C0 42.1363 41.5387 0.6418 92.7791 0.6418C144.016 0.6418 185.555 42.1363 185.555 93.3177C185.555 144.503 144.016 186 92.7791 186C41.5387 186 0 144.503 0 93.3177ZM122.93 87.0473C127.746 96.7234 133.274 102.12 142.949 108.507C153.26 115.303 159.838 115.246 160.82 109.254C161.43 105.531 158.344 104.026 155.469 102.624C153.708 101.765 152.027 100.944 151.321 99.6769C150.024 97.3372 147.848 94.169 144.585 90.6633C139.568 86.1931 130.932 88.2523 130.932 88.2523C130.932 88.2523 135.281 85.2345 139.758 85.9867C139.879 83.6167 139.724 81.0652 136.202 76.6394C136.202 76.6394 137.697 72.0546 136.298 68.2732C142.114 65.0826 146.346 59.2196 147.156 52.1315C148.484 40.5298 140.14 30.0483 128.523 28.7242C120.246 27.7797 112.545 31.745 108.317 38.2955C108.21 38.4873 108.098 38.6846 107.983 38.8877C106.124 42.1715 103.397 46.9878 105.45 54.9094C105.852 56.2383 106.507 57.9229 107.575 59.9182C109.631 63.6488 112.788 66.7257 116.664 68.6576C116.664 68.6576 108.43 67.8673 103.938 61.1115C103.875 61.0295 103.814 60.9559 103.746 60.8671C103.713 60.8061 103.686 60.7466 103.654 60.6875C102.809 59.3157 102.128 57.7033 101.678 55.827C98.9609 46.3065 102.713 37.2378 104.995 32.9569C103.304 30.7469 101.95 29.5702 101.95 29.5702C96.8672 29.6043 92.7761 31.5328 92.7761 31.5328C92.7761 31.5328 97.2565 25.899 102.196 26.1562C102.235 23.7705 102.01 20.5887 100.817 18.1324C98.5775 13.5251 92.34 14.6647 90.4998 16.8396C89.82 17.6402 89.3814 18.1295 88.727 19.6511C88.8364 19.3964 88.9678 19.1506 89.1109 18.91C87.3454 23.3534 88.706 39.8425 95.4446 51.5393C94.5269 52.0018 92.0299 53.8161 90.6014 55.2753C90.6014 55.2753 85.8759 58.8293 72.972 77.7761C61.9074 82.0215 54.8855 86.7517 50.4404 91.3C50.1376 91.5854 49.8543 91.881 49.5881 92.1835C49.5598 92.2147 49.5344 92.2444 49.5076 92.2742C49.4607 92.3279 49.4099 92.3801 49.3645 92.4352C49.3303 92.4752 49.302 92.5132 49.2682 92.5542C48.2104 93.7519 47.3275 94.9311 46.591 96.0814C42.8608 101.515 42.5297 104.934 43.1299 107.567C43.1313 107.573 43.1357 107.579 43.1367 107.585C43.2461 108.744 43.6622 109.657 44.322 110.34C43.2969 111.211 42.2127 112.274 41.1393 113.536C36.7678 118.697 39.2424 126.634 47.8524 122.645C53.7701 119.907 59.0758 115.088 61.463 111.205C59.3195 109.355 55.35 109.536 55.35 109.536L62.7933 107.76C66.1602 106.708 69.9285 106.057 72.9808 106.188L72.972 106.148C75.9409 106.148 77.3283 99.8184 77.4841 95.2365C77.4866 94.6247 77.4866 94.011 77.47 93.3856L77.47 93.3548C77.3142 87.8196 76.2524 81.7756 72.972 77.7761C77.5378 82.3381 82.2492 89.9662 81.9093 100.502C81.9093 100.502 81.5244 107.319 76.21 109.011C75.7787 109.81 75.1948 110.807 74.5143 111.969C69.8578 119.921 60.6751 135.603 64.8748 148.626C61.2305 143.038 60.9897 140.385 60.9897 140.385C60.9897 140.385 49.5979 153.028 48.8829 158.529C48.2163 160.723 48.7769 162.85 51.7287 164.465C61.6979 169.924 92.5012 131.413 98.9765 111.29C111.947 103.535 119.637 93.6768 122.93 87.0473ZM140.033 59.4342C144.324 51.2697 138.925 46.2806 134.558 42.2446C134.255 41.9648 133.957 41.6896 133.668 41.4182C126.52 34.7063 119.391 31.8046 111.248 41.0982C103.111 50.3923 108.281 61.171 115.724 66.4911C123.171 71.8111 135.437 68.1624 140.033 59.4342ZM127.703 55.8539C124.836 52.4203 130.196 46.1865 133.56 49.9089C139.755 56.7671 130.576 59.2874 127.703 55.8539ZM98.4134 69.506C99.4991 68.4215 99.4991 66.6638 98.4134 65.5802C97.3273 64.4957 95.5692 64.4957 94.4835 65.5802C93.3973 66.6638 93.3973 68.4215 94.4835 69.506C95.5692 70.5895 97.3273 70.5895 98.4134 69.506ZM88.6113 71.4462C87.5251 72.5297 87.5251 74.2875 88.6113 75.372C89.6955 76.4555 91.4551 76.4555 92.5412 75.372C93.6254 74.2875 93.6254 72.5297 92.5412 71.4462C91.4551 70.3617 89.6955 70.3617 88.6113 71.4462ZM99.5118 72.8903C101.209 71.1945 103.963 71.193 105.661 72.8903L109.632 76.857C111.331 78.5538 111.331 81.3043 109.632 83.0016L106.016 86.6146C104.318 88.3104 101.564 88.3119 99.8659 86.6146L95.8949 82.6464C94.1958 80.9511 94.1958 78.2006 95.8949 76.5033L99.5118 72.8903Z" id="Layer_1_1" fill="#6F7580" fill-rule="evenodd" stroke="none" clip-path="url(#clip_1)" />
  </g>
</svg>